<?xml version="1.0" encoding="UTF-8" standalone="no"?><!DOCTYPE svg PUBLIC "-//W3C//DTD SVG 1.1//EN" "http://www.w3.org/Graphics/SVG/1.1/DTD/svg11.dtd"><svg width="100%" height="100%" viewBox="0 0 378 378" version="1.1" xmlns="http://www.w3.org/2000/svg" xmlns:xlink="http://www.w3.org/1999/xlink" xml:space="preserve" style="fill-rule:evenodd;clip-rule:evenodd;stroke-linejoin:round;stroke-miterlimit:1.41421;"><g><path d="M322.604,55.349c73.751,73.751 73.751,193.503 0,267.253c-73.75,73.751 -193.503,73.751 -267.253,0c-73.751,-73.75 -73.751,-193.502 0,-267.253c73.75,-73.75 193.503,-73.75 267.253,0Z" style="fill:#fff;"/><path d="M195.759,147.129l-98.385,98.385c-3.047,3.296 -5.007,7.292 -4.968,13.753c0.019,3.416 1.741,8.424 5.033,11.677l8.732,8.732c3.371,3.436 7.773,5.364 12.46,5.816c4.906,0.481 10.228,-2.137 13.242,-5.479l98.385,-98.385l-0.835,79.128c-0.386,5.177 1.983,9.105 5.211,13.523c2.791,3.819 9.127,5.377 13.369,5.057l11.72,0.402c3.963,0.37 9.845,-2.533 13.019,-5.61c3.329,-3.223 4.461,-5.776 5.158,-12.567l0.063,-144.211c0.252,-3.977 -1.067,-8.902 -5.25,-13.098c-3.803,-3.823 -7.606,-5.119 -13.019,-5.171c-0.514,-0.003 -144.172,0.101 -144.172,0.101c0,0 -8.899,1.064 -12.813,4.913c-3.911,3.845 -5.4,8.457 -5.364,13.265l0.209,11.527c-0.154,5.154 1.362,9.982 5.181,13.493c3.908,3.601 8.496,5.106 13.612,5.299l79.412,-0.55" style="fill:#003654;"/></g></svg>