<?xml version="1.0" encoding="UTF-8" standalone="no"?><!DOCTYPE svg PUBLIC "-//W3C//DTD SVG 1.1//EN" "http://www.w3.org/Graphics/SVG/1.1/DTD/svg11.dtd"><svg width="100%" height="100%" viewBox="0 0 448 512" version="1.1" xmlns="http://www.w3.org/2000/svg" xmlns:xlink="http://www.w3.org/1999/xlink" xml:space="preserve" style="fill-rule:evenodd;clip-rule:evenodd;stroke-linejoin:round;stroke-miterlimit:1.41421;"><path d="M416,208l-144,0l0,-144c0,-17.67 -14.33,-32 -32,-32l-32,0c-17.67,0 -32,14.33 -32,32l0,144l-144,0c-17.67,0 -32,14.33 -32,32l0,32c0,17.67 14.33,32 32,32l144,0l0,144c0,17.67 14.33,32 32,32l32,0c17.67,0 32,-14.33 32,-32l0,-144l144,0c17.67,0 32,-14.33 32,-32l0,-32c0,-17.67 -14.33,-32 -32,-32Z" style="fill:#fbfbfb;fill-rule:nonzero;"/></svg>