<?xml version="1.0" encoding="utf-8"?>
<svg version="1.1" xmlns="http://www.w3.org/2000/svg" width="355px" height="438.375px" viewBox="0.5 -0.5 355 438.375" stroke="#1F1A17">
<path fill="#0079C1" d="M355,0H1v260c0,237,354,236,354,0V0z"/>
<path fill="#A39161" d="M96,108l19,23h62v265l26-22V131h75l-18-23h-57V26l-26,19v63H96z"/>
<g fill="#A39161">
	<path d="M324,305c0-12.15-11.641-22-26-22c-2.792,0-5.479,0.377-8,1.066V150h-18v4h-26v-4h-13v23
		h13v-8h7v8h11v-8h8v30h-8v-8h-12v8h-7v-8h-12v28h13v-9h6v9h12v-10h8v79.066c-2.521-0.689-5.208-1.066-8-1.066
		c-14.359,0-26,9.85-26,22c0,9.864,7.674,18.213,18.246,21.005C256.089,326.985,256,327.984,256,329c0,12.149,11.641,22,26,22
		s26-9.851,26-22c0-1.217-0.122-2.41-0.347-3.573C317.231,322.183,324,314.262,324,305z M295,311l-8,12c6,1,7,14-5,14
		c-11-2-10-12-4-14l-9-12c-3,3-17-1-13-9c5-11,20-2,17,3h17c1-11,13-9,16-5C311,306,304,314,295,311z"/>
	<ellipse cx="281" cy="147" rx="8" ry="4"/>
	<rect x="272" y="264" fill="#A39161" width="18" height="4"/>
</g>
<path fill="#FFF" d="M131,292c13,2,27-6,29-4c11,11,63-5,51-22l-9,5c6-3,15-6,13-16c-3-6-8,3-13,3
	c10-3,18-16,9-19c-5-1-2,2-13,7c6-4,10-5,12-13c0-2-1-10-7-7c-3,2-6,6-10,7c-7,4-16,4-16-1c0-4,0-8,0-13c-13,5-15,11-15,13
	c-5,8-8,14-23,18L131,292z"/>
<path fill="#EE3124" d="M83,101c8,32-4,81-24,85c9-1,18-14,21-29c4,40-2,50-12,73l-11,17c5-7,10-16,10-16
	c20,3,48,22,72,17c0,15-4,37-8,52c-11,26-20,28-35,61c-7-1-29-31-33-34c-5-5-14-10-32-18c-20-8-30-36-29-48V129c14,4,24-1,29-6
	c11,4,30,2,38-19c7,1,12-2,15-3H83z"/>
<path fill="#DCDDDE" d="M1,129c12,5,26-1,29-6c10,5,33-1,38-19c26,1,61-36,60-59c19-4,34-15,39-45H1V129z"/>
</svg>
