<?xml version="1.0" encoding="UTF-8" standalone="no"?>
<!DOCTYPE svg PUBLIC "-//W3C//DTD SVG 1.1//EN" "http://www.w3.org/Graphics/SVG/1.1/DTD/svg11.dtd">
<svg width="100%" height="100%" viewBox="0 0 355 439" version="1.1" xmlns="http://www.w3.org/2000/svg" xmlns:xlink="http://www.w3.org/1999/xlink" xml:space="preserve" style="fill-rule:evenodd;clip-rule:evenodd;">
    <g transform="matrix(1,0,0,1,-0.5,0.5)">
        <path d="M355,0L1,0L1,260C1,497 355,496 355,260L355,0Z" style="fill:rgb(0,121,193);fill-rule:nonzero;stroke:rgb(2,121,193);stroke-width:1px;"/>
    </g>
    <g transform="matrix(1,0,0,1,-0.5,0.5)">
        <path d="M96,108L115,131L177,131L177,396L203,374L203,131L278,131L260,108L203,108L203,26L177,45L177,108L96,108Z" style="fill:white;fill-rule:nonzero;stroke:rgb(2,121,193);stroke-width:1px;"/>
    </g>
    <g transform="matrix(1,0,0,1,-0.5,0.5)">
        <path d="M324,305C324,292.85 312.359,283 298,283C295.208,283 292.521,283.377 290,284.066L290,150L272,150L272,154L246,154L246,150L233,150L233,173L246,173L246,165L253,165L253,173L264,173L264,165L272,165L272,195L264,195L264,187L252,187L252,195L245,195L245,187L233,187L233,215L246,215L246,206L252,206L252,215L264,215L264,205L272,205L272,284.066C269.479,283.377 266.792,283 264,283C249.641,283 238,292.85 238,305C238,314.864 245.674,323.213 256.246,326.005C256.089,326.985 256,327.984 256,329C256,341.149 267.641,351 282,351C296.359,351 308,341.149 308,329C308,327.783 307.878,326.59 307.653,325.427C317.231,322.183 324,314.262 324,305ZM295,311L287,323C293,324 294,337 282,337C271,335 272,325 278,323L269,311C266,314 252,310 256,302C261,291 276,300 273,305L290,305C291,294 303,296 306,300C311,306 304,314 295,311Z" style="fill:white;fill-rule:nonzero;stroke:rgb(2,121,193);stroke-width:1.65px;"/>
        <ellipse cx="281" cy="147" rx="8" ry="4" style="fill:white;stroke:rgb(2,121,193);stroke-width:1.65px;"/>
        <rect x="272" y="264" width="18" height="4" style="fill:white;stroke:rgb(2,121,193);stroke-width:1.65px;"/>
    </g>
    <g transform="matrix(1,0,0,1,-0.5,0.5)">
        <path d="M131,292C144,294 158,286 160,288C171,299 223,283 211,266L202,271C208,268 217,265 215,255C212,249 207,258 202,258C212,255 220,242 211,239C206,238 209,241 198,246C204,242 208,241 210,233C210,231 209,223 203,226C200,228 197,232 193,233C186,237 177,237 177,232C177,228 177,224 177,219C164,224 162,230 162,232C157,240 154,246 139,250L131,292Z" style="fill:white;fill-rule:nonzero;stroke:rgb(2,121,193);stroke-width:1px;"/>
    </g>
    <g transform="matrix(1,0,0,1,-0.5,0.5)">
        <path d="M83,101C91,133 79,182 59,186C68,185 77,172 80,157C84,197 78,207 68,230L57,247C62,240 67,231 67,231C87,234 115,253 139,248C139,263 135,285 131,300C120,326 111,328 96,361C89,360 67,330 63,327C58,322 49,317 31,309C11,301 1,273 2,261L2,129C16,133 26,128 31,123C42,127 61,125 69,104C76,105 81,102 84,101L83,101Z" style="fill:white;fill-rule:nonzero;stroke:rgb(2,121,193);stroke-width:1px;"/>
    </g>
    <g transform="matrix(1,0,0,1,-0.5,0.5)">
        <path d="M1,129C13,134 27,128 30,123C40,128 63,122 68,104C94,105 129,68 128,45C147,41 162,30 167,0L1,0L1,129Z" style="fill:white;fill-rule:nonzero;stroke:rgb(2,121,193);stroke-width:1px;"/>
    </g>
</svg>
